<svg viewBox="-100 -100 10200 10200" xmlns="http://www.w3.org/2000/svg">
<path d="M0,0 l10000,0 l0,10000 l-10000,0 z" fill="white"/>
<path d="M1549,0 l903,0 l0,903 l-903,0 z" fill="#0900ff" stroke="black" stroke-width="5"/>
<path d="M5155,6436 l1058,0 l0,1058 l-1058,0 z" fill="#2200ff" stroke="black" stroke-width="5"/>
<path d="M4985,0 l500,0 l0,500 l-500,0 z" fill="#0900ff" stroke="black" stroke-width="5"/>
<path d="M5510,2883 l339,0 l0,339 l-339,0 z" fill="#1100ff" stroke="black" stroke-width="5"/>
<path d="M6179,2754 l960,0 l0,960 l-960,0 z" fill="#ff00fe" stroke="black" stroke-width="5"/>
<path d="M3529,943 l1578,0 l0,1578 l-1578,0 z" fill="#ff00fe" stroke="black" stroke-width="5"/>
<path d="M7604,9243 l664,0 l0,664 l-664,0 z" fill="#ff00fe" stroke="black" stroke-width="5"/>
<path d="M7492,49 l766,0 l0,766 l-766,0 z" fill="#ff00fe" stroke="black" stroke-width="5"/>
<path d="M8540,4551 l1344,0 l0,1344 l-1344,0 z" fill="#ff00fe" stroke="black" stroke-width="5"/>
<path d="M6889,8667 l714,0 l0,714 l-714,0 z" fill="#ff00fe" stroke="black" stroke-width="5"/>
<path d="M7140,2003 l1249,0 l0,1249 l-1249,0 z" fill="#ff00fe" stroke="black" stroke-width="5"/>
<path d="M32,4446 l1345,0 l0,1345 l-1345,0 z" fill="#ff00fe" stroke="black" stroke-width="5"/>
<path d="M7070,4015 l188,0 l0,188 l-188,0 z" fill="#ff00fe" stroke="black" stroke-width="5"/>
<path d="M5216,2131 l281,0 l0,281 l-281,0 z" fill="#ff00fe" stroke="black" stroke-width="5"/>
<path d="M5184,500 l301,0 l0,301 l-301,0 z" fill="#0500ff" stroke="black" stroke-width="5"/>
<path d="M2900,4579 l1250,0 l0,1250 l-1250,0 z" fill="#ee00ff" stroke="black" stroke-width="5"/>
<path d="M4582,3301 l170,0 l0,170 l-170,0 z" fill="#ff00fe" stroke="black" stroke-width="5"/>
<path d="M5194,7494 l754,0 l0,754 l-754,0 z" fill="#1200ff" stroke="black" stroke-width="5"/>
<path d="M2038,9333 l667,0 l0,667 l-667,0 z" fill="#2700ff" stroke="black" stroke-width="5"/>
<path d="M8790,3701 l424,0 l0,424 l-424,0 z" fill="#8e00ff" stroke="black" stroke-width="5"/>
<path d="M8284,8657 l1053,0 l0,1053 l-1053,0 z" fill="#ff00fe" stroke="black" stroke-width="5"/>
<path d="M2709,1364 l819,0 l0,819 l-819,0 z" fill="#ff00fe" stroke="black" stroke-width="5"/>
<path d="M6956,4204 l525,0 l0,525 l-525,0 z" fill="#0a00ff" stroke="black" stroke-width="5"/>
<path d="M8036,7688 l523,0 l0,523 l-523,0 z" fill="#0f00ff" stroke="black" stroke-width="5"/>
<path d="M8365,4125 l425,0 l0,425 l-425,0 z" fill="#0100ff" stroke="black" stroke-width="5"/>
<path d="M2778,8791 l859,0 l0,859 l-859,0 z" fill="#db00ff" stroke="black" stroke-width="5"/>
<path d="M7482,4063 l883,0 l0,883 l-883,0 z" fill="#ec00ff" stroke="black" stroke-width="5"/>
<path d="M9341,0 l659,0 l0,659 l-659,0 z" fill="#dd00ff" stroke="black" stroke-width="5"/>
<path d="M6587,945 l888,0 l0,888 l-888,0 z" fill="#ff00fe" stroke="black" stroke-width="5"/>
<path d="M1396,1892 l971,0 l0,971 l-971,0 z" fill="#ff00fe" stroke="black" stroke-width="5"/>
<path d="M0,8288 l843,0 l0,843 l-843,0 z" fill="#ff00fe" stroke="black" stroke-width="5"/>
<path d="M3266,3654 l924,0 l0,924 l-924,0 z" fill="#1d00ff" stroke="black" stroke-width="5"/>
<path d="M3638,8539 l1461,0 l0,1461 l-1461,0 z" fill="#d400ff" stroke="black" stroke-width="5"/>
<path d="M5589,3223 l589,0 l0,589 l-589,0 z" fill="#1f00ff" stroke="black" stroke-width="5"/>
<path d="M4768,3813 l2188,0 l0,2188 l-2188,0 z" fill="#dc00ff" stroke="black" stroke-width="5"/>
<path d="M3637,7339 l1199,0 l0,1199 l-1199,0 z" fill="#4a00ff" stroke="black" stroke-width="5"/>
<path d="M8560,8185 l471,0 l0,471 l-471,0 z" fill="#0200ff" stroke="black" stroke-width="5"/>
<path d="M793,3393 l504,0 l0,504 l-504,0 z" fill="#ff00fe" stroke="black" stroke-width="5"/>
<path d="M0,7365 l805,0 l0,805 l-805,0 z" fill="#ff00fe" stroke="black" stroke-width="5"/>
<path d="M776,3898 l547,0 l0,547 l-547,0 z" fill="#1000ff" stroke="black" stroke-width="5"/>
<path d="M8206,6583 l1104,0 l0,1104 l-1104,0 z" fill="#ff00fe" stroke="black" stroke-width="5"/>
<path d="M4406,6114 l748,0 l0,748 l-748,0 z" fill="#f000ff" stroke="black" stroke-width="5"/>
<path d="M2368,2647 l1006,0 l0,1006 l-1006,0 z" fill="#4e00ff" stroke="black" stroke-width="5"/>
<path d="M4753,2782 l757,0 l0,757 l-757,0 z" fill="#9200ff" stroke="black" stroke-width="5"/>
<path d="M1705,904 l987,0 l0,987 l-987,0 z" fill="#0b00ff" stroke="black" stroke-width="5"/>
<path d="M889,6043 l2748,0 l0,2748 l-2748,0 z" fill="#ff00fe" stroke="black" stroke-width="5"/>
<path d="M5440,8249 l1449,0 l0,1449 l-1449,0 z" fill="#8e00ff" stroke="black" stroke-width="5"/>
<path d="M7604,8563 l679,0 l0,679 l-679,0 z" fill="#0b00ff" stroke="black" stroke-width="5"/>
<path d="M2220,9177 l155,0 l0,155 l-155,0 z" fill="#ff00fe" stroke="black" stroke-width="5"/>
<path d="M3966,5830 l439,0 l0,439 l-439,0 z" fill="#ff00fe" stroke="black" stroke-width="5"/>
<path d="M1879,330 l60,0 l0,60 l-60,0 z" fill="green"/>
<path d="M1909,360 l91.5,91.5" stroke="black" stroke-width="5"/>
<path d="M5780,7061 l60,0 l0,60 l-60,0 z" fill="green"/>
<path d="M5810,7091 l-126,-126" stroke="black" stroke-width="5"/>
<path d="M5377,392 l60,0 l0,60 l-60,0 z" fill="green"/>
<path d="M5407,422 l-172,-172" stroke="black" stroke-width="5"/>
<path d="M5737,3110 l60,0 l0,60 l-60,0 z" fill="green"/>
<path d="M5767,3140 l-87.5,-87.5" stroke="black" stroke-width="5"/>
<path d="M6629,3204 l60,0 l0,60 l-60,0 z" fill="green"/>
<path d="M6659,3234 l0,0" stroke="black" stroke-width="5"/>
<path d="M4176,1590 l60,0 l0,60 l-60,0 z" fill="green"/>
<path d="M4206,1620 l112,112" stroke="black" stroke-width="5"/>
<path d="M7823,9462 l60,0 l0,60 l-60,0 z" fill="green"/>
<path d="M7853,9492 l83,83" stroke="black" stroke-width="5"/>
<path d="M7845,402 l60,0 l0,60 l-60,0 z" fill="green"/>
<path d="M7875,432 l0,0" stroke="black" stroke-width="5"/>
<path d="M9018,5029 l60,0 l0,60 l-60,0 z" fill="green"/>
<path d="M9048,5059 l164,164" stroke="black" stroke-width="5"/>
<path d="M7262,9040 l60,0 l0,60 l-60,0 z" fill="green"/>
<path d="M7292,9070 l-46,-46" stroke="black" stroke-width="5"/>
<path d="M7603,2466 l60,0 l0,60 l-60,0 z" fill="green"/>
<path d="M7633,2496 l131.5,131.5" stroke="black" stroke-width="5"/>
<path d="M391,4805 l60,0 l0,60 l-60,0 z" fill="green"/>
<path d="M421,4835 l283.5,283.5" stroke="black" stroke-width="5"/>
<path d="M7134,4079 l60,0 l0,60 l-60,0 z" fill="green"/>
<path d="M7164,4109 l0,0" stroke="black" stroke-width="5"/>
<path d="M5326,2241 l60,0 l0,60 l-60,0 z" fill="green"/>
<path d="M5356,2271 l0.5,0.5" stroke="black" stroke-width="5"/>
<path d="M5231,547 l60,0 l0,60 l-60,0 z" fill="green"/>
<path d="M5261,577 l73.5,73.5" stroke="black" stroke-width="5"/>
<path d="M3516,5195 l60,0 l0,60 l-60,0 z" fill="green"/>
<path d="M3546,5225 l-21,-21" stroke="black" stroke-width="5"/>
<path d="M4637,3356 l60,0 l0,60 l-60,0 z" fill="green"/>
<path d="M4667,3386 l0,0" stroke="black" stroke-width="5"/>
<path d="M5566,7866 l60,0 l0,60 l-60,0 z" fill="green"/>
<path d="M5596,7896 l-25,-25" stroke="black" stroke-width="5"/>
<path d="M2488,9783 l60,0 l0,60 l-60,0 z" fill="green"/>
<path d="M2518,9813 l-146.5,-146.5" stroke="black" stroke-width="5"/>
<path d="M8972,3883 l60,0 l0,60 l-60,0 z" fill="green"/>
<path d="M9002,3913 l0,0" stroke="black" stroke-width="5"/>
<path d="M8544,8917 l60,0 l0,60 l-60,0 z" fill="green"/>
<path d="M8574,8947 l236.5,236.5" stroke="black" stroke-width="5"/>
<path d="M3088,1743 l60,0 l0,60 l-60,0 z" fill="green"/>
<path d="M3118,1773 l0.5,0.5" stroke="black" stroke-width="5"/>
<path d="M7110,4358 l60,0 l0,60 l-60,0 z" fill="green"/>
<path d="M7140,4388 l78.5,78.5" stroke="black" stroke-width="5"/>
<path d="M8514,8166 l60,0 l0,60 l-60,0 z" fill="green"/>
<path d="M8544,8196 l-246.5,-246.5" stroke="black" stroke-width="5"/>
<path d="M8547,4307 l60,0 l0,60 l-60,0 z" fill="green"/>
<path d="M8577,4337 l0.5,0.5" stroke="black" stroke-width="5"/>
<path d="M3125,9138 l60,0 l0,60 l-60,0 z" fill="green"/>
<path d="M3155,9168 l52.5,52.5" stroke="black" stroke-width="5"/>
<path d="M7793,4374 l60,0 l0,60 l-60,0 z" fill="green"/>
<path d="M7823,4404 l100.5,100.5" stroke="black" stroke-width="5"/>
<path d="M9421,80 l60,0 l0,60 l-60,0 z" fill="green"/>
<path d="M9451,110 l219.5,219.5" stroke="black" stroke-width="5"/>
<path d="M7001,1359 l60,0 l0,60 l-60,0 z" fill="green"/>
<path d="M7031,1389 l0,0" stroke="black" stroke-width="5"/>
<path d="M1811,2307 l60,0 l0,60 l-60,0 z" fill="green"/>
<path d="M1841,2337 l40.5,40.5" stroke="black" stroke-width="5"/>
<path d="M46,8334 l60,0 l0,60 l-60,0 z" fill="green"/>
<path d="M76,8364 l345.5,345.5" stroke="black" stroke-width="5"/>
<path d="M3513,3901 l60,0 l0,60 l-60,0 z" fill="green"/>
<path d="M3543,3931 l185,185" stroke="black" stroke-width="5"/>
<path d="M3897,8798 l60,0 l0,60 l-60,0 z" fill="green"/>
<path d="M3927,8828 l441.5,441.5" stroke="black" stroke-width="5"/>
<path d="M5641,3275 l60,0 l0,60 l-60,0 z" fill="green"/>
<path d="M5671,3305 l212.5,212.5" stroke="black" stroke-width="5"/>
<path d="M5512,4557 l60,0 l0,60 l-60,0 z" fill="green"/>
<path d="M5542,4587 l320,320" stroke="black" stroke-width="5"/>
<path d="M4000,7702 l60,0 l0,60 l-60,0 z" fill="green"/>
<path d="M4030,7732 l206.5,206.5" stroke="black" stroke-width="5"/>
<path d="M8545,8170 l60,0 l0,60 l-60,0 z" fill="green"/>
<path d="M8575,8200 l220.5,220.5" stroke="black" stroke-width="5"/>
<path d="M1109,3709 l60,0 l0,60 l-60,0 z" fill="green"/>
<path d="M1139,3739 l-94,-94" stroke="black" stroke-width="5"/>
<path d="M20,7385 l60,0 l0,60 l-60,0 z" fill="green"/>
<path d="M50,7415 l352.5,352.5" stroke="black" stroke-width="5"/>
<path d="M904,4026 l60,0 l0,60 l-60,0 z" fill="green"/>
<path d="M934,4056 l115.5,115.5" stroke="black" stroke-width="5"/>
<path d="M8771,7148 l60,0 l0,60 l-60,0 z" fill="green"/>
<path d="M8801,7178 l-43,-43" stroke="black" stroke-width="5"/>
<path d="M4469,6177 l60,0 l0,60 l-60,0 z" fill="green"/>
<path d="M4499,6207 l281,281" stroke="black" stroke-width="5"/>
<path d="M3066,3345 l60,0 l0,60 l-60,0 z" fill="green"/>
<path d="M3096,3375 l-225,-225" stroke="black" stroke-width="5"/>
<path d="M5222,3251 l60,0 l0,60 l-60,0 z" fill="green"/>
<path d="M5252,3281 l-120.5,-120.5" stroke="black" stroke-width="5"/>
<path d="M2217,1416 l60,0 l0,60 l-60,0 z" fill="green"/>
<path d="M2247,1446 l-48.5,-48.5" stroke="black" stroke-width="5"/>
<path d="M3317,8471 l60,0 l0,60 l-60,0 z" fill="green"/>
<path d="M3347,8501 l-1084,-1084" stroke="black" stroke-width="5"/>
<path d="M5761,8570 l60,0 l0,60 l-60,0 z" fill="green"/>
<path d="M5791,8600 l373.5,373.5" stroke="black" stroke-width="5"/>
<path d="M8003,8962 l60,0 l0,60 l-60,0 z" fill="green"/>
<path d="M8033,8992 l-89.5,-89.5" stroke="black" stroke-width="5"/>
<path d="M2267,9224 l60,0 l0,60 l-60,0 z" fill="green"/>
<path d="M2297,9254 l0.5,0.5" stroke="black" stroke-width="5"/>
<path d="M4282,6146 l60,0 l0,60 l-60,0 z" fill="green"/>
<path d="M4312,6176 l-126.5,-126.5" stroke="black" stroke-width="5"/>
<text font-size="200" text-anchor="middle" x="2000.5" y="521.5">
0
</text>
<text font-size="200" text-anchor="middle" x="5684" y="7035">
1
</text>
<text font-size="200" text-anchor="middle" x="5235" y="320">
2
</text>
<text font-size="200" text-anchor="middle" x="5679.5" y="3122.5">
3
</text>
<text font-size="200" text-anchor="middle" x="6659" y="3304">
4
</text>
<text font-size="200" text-anchor="middle" x="4318" y="1802">
5
</text>
<text font-size="200" text-anchor="middle" x="7936" y="9645">
6
</text>
<text font-size="200" text-anchor="middle" x="7875" y="502">
7
</text>
<text font-size="200" text-anchor="middle" x="9212" y="5293">
8
</text>
<text font-size="200" text-anchor="middle" x="7246" y="9094">
9
</text>
<text font-size="200" text-anchor="middle" x="7764.5" y="2697.5">
10
</text>
<text font-size="200" text-anchor="middle" x="704.5" y="5188.5">
11
</text>
<text font-size="200" text-anchor="middle" x="7164" y="4179">
12
</text>
<text font-size="200" text-anchor="middle" x="5356.5" y="2341.5">
13
</text>
<text font-size="200" text-anchor="middle" x="5334.5" y="720.5">
14
</text>
<text font-size="200" text-anchor="middle" x="3525" y="5274">
15
</text>
<text font-size="200" text-anchor="middle" x="4667" y="3456">
16
</text>
<text font-size="200" text-anchor="middle" x="5571" y="7941">
17
</text>
<text font-size="200" text-anchor="middle" x="2371.5" y="9736.5">
18
</text>
<text font-size="200" text-anchor="middle" x="9002" y="3983">
19
</text>
<text font-size="200" text-anchor="middle" x="8810.5" y="9253.5">
20
</text>
<text font-size="200" text-anchor="middle" x="3118.5" y="1843.5">
21
</text>
<text font-size="200" text-anchor="middle" x="7218.5" y="4536.5">
22
</text>
<text font-size="200" text-anchor="middle" x="8297.5" y="8019.5">
23
</text>
<text font-size="200" text-anchor="middle" x="8577.5" y="4407.5">
24
</text>
<text font-size="200" text-anchor="middle" x="3207.5" y="9290.5">
25
</text>
<text font-size="200" text-anchor="middle" x="7923.5" y="4574.5">
26
</text>
<text font-size="200" text-anchor="middle" x="9670.5" y="399.5">
27
</text>
<text font-size="200" text-anchor="middle" x="7031" y="1459">
28
</text>
<text font-size="200" text-anchor="middle" x="1881.5" y="2447.5">
29
</text>
<text font-size="200" text-anchor="middle" x="421.5" y="8779.5">
30
</text>
<text font-size="200" text-anchor="middle" x="3728" y="4186">
31
</text>
<text font-size="200" text-anchor="middle" x="4368.5" y="9339.5">
32
</text>
<text font-size="200" text-anchor="middle" x="5883.5" y="3587.5">
33
</text>
<text font-size="200" text-anchor="middle" x="5862" y="4977">
34
</text>
<text font-size="200" text-anchor="middle" x="4236.5" y="8008.5">
35
</text>
<text font-size="200" text-anchor="middle" x="8795.5" y="8490.5">
36
</text>
<text font-size="200" text-anchor="middle" x="1045" y="3715">
37
</text>
<text font-size="200" text-anchor="middle" x="402.5" y="7837.5">
38
</text>
<text font-size="200" text-anchor="middle" x="1049.5" y="4241.5">
39
</text>
<text font-size="200" text-anchor="middle" x="8758" y="7205">
40
</text>
<text font-size="200" text-anchor="middle" x="4780" y="6558">
41
</text>
<text font-size="200" text-anchor="middle" x="2871" y="3220">
42
</text>
<text font-size="200" text-anchor="middle" x="5131.5" y="3230.5">
43
</text>
<text font-size="200" text-anchor="middle" x="2198.5" y="1467.5">
44
</text>
<text font-size="200" text-anchor="middle" x="2263" y="7487">
45
</text>
<text font-size="200" text-anchor="middle" x="6164.5" y="9043.5">
46
</text>
<text font-size="200" text-anchor="middle" x="7943.5" y="8972.5">
47
</text>
<text font-size="200" text-anchor="middle" x="2297.5" y="9324.5">
48
</text>
<text font-size="200" text-anchor="middle" x="4185.5" y="6119.5">
49
</text>
</svg>