<svg viewBox="-100 -100 10200 10200" xmlns="http://www.w3.org/2000/svg">
<path d="M0,0 l10000,0 l0,10000 l-10000,0 z" fill="white"/>
<path d="M1549,0 l361,0 l0,361 l-361,0 z" fill="#0000ff" stroke="black" stroke-width="5"/>
<path d="M4501,5782 l1310,0 l0,1310 l-1310,0 z" fill="#4c00ff" stroke="black" stroke-width="5"/>
<path d="M4985,0 l423,0 l0,423 l-423,0 z" fill="#0400ff" stroke="black" stroke-width="5"/>
<path d="M5254,2627 l514,0 l0,514 l-514,0 z" fill="#5300ff" stroke="black" stroke-width="5"/>
<path d="M5769,2344 l891,0 l0,891 l-891,0 z" fill="#f300ff" stroke="black" stroke-width="5"/>
<path d="M3120,534 l1087,0 l0,1087 l-1087,0 z" fill="#7500ff" stroke="black" stroke-width="5"/>
<path d="M7354,8993 l500,0 l0,500 l-500,0 z" fill="#9a00ff" stroke="black" stroke-width="5"/>
<path d="M7443,0 l433,0 l0,433 l-433,0 z" fill="#3b00ff" stroke="black" stroke-width="5"/>
<path d="M8328,4339 l721,0 l0,721 l-721,0 z" fill="#3000ff" stroke="black" stroke-width="5"/>
<path d="M5793,7571 l1500,0 l0,1500 l-1500,0 z" fill="#ff001e" stroke="black" stroke-width="5"/>
<path d="M6661,1524 l973,0 l0,973 l-973,0 z" fill="#a900ff" stroke="black" stroke-width="5"/>
<path d="M0,4414 l422,0 l0,422 l-422,0 z" fill="#0600ff" stroke="black" stroke-width="5"/>
<path d="M6291,3236 l874,0 l0,874 l-874,0 z" fill="#ff0001" stroke="black" stroke-width="5"/>
<path d="M4208,1123 l1149,0 l0,1149 l-1149,0 z" fill="#ff0002" stroke="black" stroke-width="5"/>
<path d="M5107,423 l155,0 l0,155 l-155,0 z" fill="#0000ff" stroke="black" stroke-width="5"/>
<path d="M2254,3933 l1293,0 l0,1293 l-1293,0 z" fill="#f700ff" stroke="black" stroke-width="5"/>
<path d="M3554,2273 l1114,0 l0,1114 l-1114,0 z" fill="#ff0000" stroke="black" stroke-width="5"/>
<path d="M4792,7092 l805,0 l0,805 l-805,0 z" fill="#1700ff" stroke="black" stroke-width="5"/>
<path d="M1961,9256 l558,0 l0,558 l-558,0 z" fill="#1300ff" stroke="black" stroke-width="5"/>
<path d="M8579,3490 l424,0 l0,424 l-424,0 z" fill="#8e00ff" stroke="black" stroke-width="5"/>
<path d="M8034,8407 l541,0 l0,541 l-541,0 z" fill="#2900ff" stroke="black" stroke-width="5"/>
<path d="M2249,904 l870,0 l0,870 l-870,0 z" fill="#ff00f6" stroke="black" stroke-width="5"/>
<path d="M6862,4110 l279,0 l0,279 l-279,0 z" fill="#0000ff" stroke="black" stroke-width="5"/>
<path d="M7527,7179 l1018,0 l0,1018 l-1018,0 z" fill="#a400ff" stroke="black" stroke-width="5"/>
<path d="M7825,3585 l753,0 l0,753 l-753,0 z" fill="#0a00ff" stroke="black" stroke-width="5"/>
<path d="M2490,8503 l666,0 l0,666 l-666,0 z" fill="#6d00ff" stroke="black" stroke-width="5"/>
<path d="M7166,3747 l658,0 l0,658 l-658,0 z" fill="#6e00ff" stroke="black" stroke-width="5"/>
<path d="M9341,0 l111,0 l0,111 l-111,0 z" fill="#0000ff" stroke="black" stroke-width="5"/>
<path d="M5642,0 l1390,0 l0,1390 l-1390,0 z" fill="#ff005b" stroke="black" stroke-width="5"/>
<path d="M952,1448 l890,0 l0,890 l-890,0 z" fill="#ef00ff" stroke="black" stroke-width="5"/>
<path d="M0,8288 l77,0 l0,77 l-77,0 z" fill="#0000ff" stroke="black" stroke-width="5"/>
<path d="M2989,3377 l555,0 l0,555 l-555,0 z" fill="#0400ff" stroke="black" stroke-width="5"/>
<path d="M3349,8250 l579,0 l0,579 l-579,0 z" fill="#0800ff" stroke="black" stroke-width="5"/>
<path d="M5507,3141 l165,0 l0,165 l-165,0 z" fill="#0000ff" stroke="black" stroke-width="5"/>
<path d="M4343,3388 l1200,0 l0,1200 l-1200,0 z" fill="#1f00ff" stroke="black" stroke-width="5"/>
<path d="M2476,6178 l1555,0 l0,1555 l-1555,0 z" fill="#aa00ff" stroke="black" stroke-width="5"/>
<path d="M8546,8171 l30,0 l0,30 l-30,0 z" fill="#0000ff" stroke="black" stroke-width="5"/>
<path d="M0,2600 l1140,0 l0,1140 l-1140,0 z" fill="#ff0017" stroke="black" stroke-width="5"/>
<path d="M0,7365 l51,0 l0,51 l-51,0 z" fill="#0000ff" stroke="black" stroke-width="5"/>
<path d="M618,3740 l317,0 l0,317 l-317,0 z" fill="#0100ff" stroke="black" stroke-width="5"/>
<path d="M6684,5061 l2118,0 l0,2118 l-2118,0 z" fill="#ff002b" stroke="black" stroke-width="5"/>
<path d="M4314,6022 l186,0 l0,186 l-186,0 z" fill="#0100ff" stroke="black" stroke-width="5"/>
<path d="M1843,2122 l1254,0 l0,1254 l-1254,0 z" fill="#a000ff" stroke="black" stroke-width="5"/>
<path d="M4668,2697 l585,0 l0,585 l-585,0 z" fill="#3d00ff" stroke="black" stroke-width="5"/>
<path d="M1163,362 l1085,0 l0,1085 l-1085,0 z" fill="#1000ff" stroke="black" stroke-width="5"/>
<path d="M2579,7733 l769,0 l0,769 l-769,0 z" fill="#0300ff" stroke="black" stroke-width="5"/>
<path d="M5089,7898 l703,0 l0,703 l-703,0 z" fill="#0900ff" stroke="black" stroke-width="5"/>
<path d="M7293,8252 l741,0 l0,741 l-741,0 z" fill="#1000ff" stroke="black" stroke-width="5"/>
<path d="M78,7035 l2220,0 l0,2220 l-2220,0 z" fill="#ff0000" stroke="black" stroke-width="5"/>
<path d="M3363,5227 l950,0 l0,950 l-950,0 z" fill="#ff001b" stroke="black" stroke-width="5"/>
<path d="M1879,330 l60,0 l0,60 l-60,0 z" fill="green"/>
<path d="M1909,360 l-179.5,-179.5" stroke="black" stroke-width="5"/>
<path d="M5780,7061 l60,0 l0,60 l-60,0 z" fill="green"/>
<path d="M5810,7091 l-654,-654" stroke="black" stroke-width="5"/>
<path d="M5377,392 l60,0 l0,60 l-60,0 z" fill="green"/>
<path d="M5407,422 l-210.5,-210.5" stroke="black" stroke-width="5"/>
<path d="M5737,3110 l60,0 l0,60 l-60,0 z" fill="green"/>
<path d="M5767,3140 l-256,-256" stroke="black" stroke-width="5"/>
<path d="M6629,3204 l60,0 l0,60 l-60,0 z" fill="green"/>
<path d="M6659,3234 l-444.5,-444.5" stroke="black" stroke-width="5"/>
<path d="M4176,1590 l60,0 l0,60 l-60,0 z" fill="green"/>
<path d="M4206,1620 l-542.5,-542.5" stroke="black" stroke-width="5"/>
<path d="M7823,9462 l60,0 l0,60 l-60,0 z" fill="green"/>
<path d="M7853,9492 l-249,-249" stroke="black" stroke-width="5"/>
<path d="M7845,402 l60,0 l0,60 l-60,0 z" fill="green"/>
<path d="M7875,432 l-215.5,-215.5" stroke="black" stroke-width="5"/>
<path d="M9018,5029 l60,0 l0,60 l-60,0 z" fill="green"/>
<path d="M9048,5059 l-359.5,-359.5" stroke="black" stroke-width="5"/>
<path d="M7262,9040 l60,0 l0,60 l-60,0 z" fill="green"/>
<path d="M7292,9070 l-749,-749" stroke="black" stroke-width="5"/>
<path d="M7603,2466 l60,0 l0,60 l-60,0 z" fill="green"/>
<path d="M7633,2496 l-485.5,-485.5" stroke="black" stroke-width="5"/>
<path d="M391,4805 l60,0 l0,60 l-60,0 z" fill="green"/>
<path d="M421,4835 l-210,-210" stroke="black" stroke-width="5"/>
<path d="M7134,4079 l60,0 l0,60 l-60,0 z" fill="green"/>
<path d="M7164,4109 l-436,-436" stroke="black" stroke-width="5"/>
<path d="M5326,2241 l60,0 l0,60 l-60,0 z" fill="green"/>
<path d="M5356,2271 l-573.5,-573.5" stroke="black" stroke-width="5"/>
<path d="M5231,547 l60,0 l0,60 l-60,0 z" fill="green"/>
<path d="M5261,577 l-76.5,-76.5" stroke="black" stroke-width="5"/>
<path d="M3516,5195 l60,0 l0,60 l-60,0 z" fill="green"/>
<path d="M3546,5225 l-645.5,-645.5" stroke="black" stroke-width="5"/>
<path d="M4637,3356 l60,0 l0,60 l-60,0 z" fill="green"/>
<path d="M4667,3386 l-556,-556" stroke="black" stroke-width="5"/>
<path d="M5566,7866 l60,0 l0,60 l-60,0 z" fill="green"/>
<path d="M5596,7896 l-401.5,-401.5" stroke="black" stroke-width="5"/>
<path d="M2488,9783 l60,0 l0,60 l-60,0 z" fill="green"/>
<path d="M2518,9813 l-278,-278" stroke="black" stroke-width="5"/>
<path d="M8972,3883 l60,0 l0,60 l-60,0 z" fill="green"/>
<path d="M9002,3913 l-211,-211" stroke="black" stroke-width="5"/>
<path d="M8544,8917 l60,0 l0,60 l-60,0 z" fill="green"/>
<path d="M8574,8947 l-269.5,-269.5" stroke="black" stroke-width="5"/>
<path d="M3088,1743 l60,0 l0,60 l-60,0 z" fill="green"/>
<path d="M3118,1773 l-434,-434" stroke="black" stroke-width="5"/>
<path d="M7110,4358 l60,0 l0,60 l-60,0 z" fill="green"/>
<path d="M7140,4388 l-138.5,-138.5" stroke="black" stroke-width="5"/>
<path d="M8514,8166 l60,0 l0,60 l-60,0 z" fill="green"/>
<path d="M8544,8196 l-508,-508" stroke="black" stroke-width="5"/>
<path d="M8547,4307 l60,0 l0,60 l-60,0 z" fill="green"/>
<path d="M8577,4337 l-375.5,-375.5" stroke="black" stroke-width="5"/>
<path d="M3125,9138 l60,0 l0,60 l-60,0 z" fill="green"/>
<path d="M3155,9168 l-332,-332" stroke="black" stroke-width="5"/>
<path d="M7793,4374 l60,0 l0,60 l-60,0 z" fill="green"/>
<path d="M7823,4404 l-328,-328" stroke="black" stroke-width="5"/>
<path d="M9421,80 l60,0 l0,60 l-60,0 z" fill="green"/>
<path d="M9451,110 l-54.5,-54.5" stroke="black" stroke-width="5"/>
<path d="M7001,1359 l60,0 l0,60 l-60,0 z" fill="green"/>
<path d="M7031,1389 l-694,-694" stroke="black" stroke-width="5"/>
<path d="M1811,2307 l60,0 l0,60 l-60,0 z" fill="green"/>
<path d="M1841,2337 l-444,-444" stroke="black" stroke-width="5"/>
<path d="M46,8334 l60,0 l0,60 l-60,0 z" fill="green"/>
<path d="M76,8364 l-37.5,-37.5" stroke="black" stroke-width="5"/>
<path d="M3513,3901 l60,0 l0,60 l-60,0 z" fill="green"/>
<path d="M3543,3931 l-276.5,-276.5" stroke="black" stroke-width="5"/>
<path d="M3897,8798 l60,0 l0,60 l-60,0 z" fill="green"/>
<path d="M3927,8828 l-288.5,-288.5" stroke="black" stroke-width="5"/>
<path d="M5641,3275 l60,0 l0,60 l-60,0 z" fill="green"/>
<path d="M5671,3305 l-81.5,-81.5" stroke="black" stroke-width="5"/>
<path d="M5512,4557 l60,0 l0,60 l-60,0 z" fill="green"/>
<path d="M5542,4587 l-599,-599" stroke="black" stroke-width="5"/>
<path d="M4000,7702 l60,0 l0,60 l-60,0 z" fill="green"/>
<path d="M4030,7732 l-776.5,-776.5" stroke="black" stroke-width="5"/>
<path d="M8545,8170 l60,0 l0,60 l-60,0 z" fill="green"/>
<path d="M8575,8200 l-14,-14" stroke="black" stroke-width="5"/>
<path d="M1109,3709 l60,0 l0,60 l-60,0 z" fill="green"/>
<path d="M1139,3739 l-569,-569" stroke="black" stroke-width="5"/>
<path d="M20,7385 l60,0 l0,60 l-60,0 z" fill="green"/>
<path d="M50,7415 l-24.5,-24.5" stroke="black" stroke-width="5"/>
<path d="M904,4026 l60,0 l0,60 l-60,0 z" fill="green"/>
<path d="M934,4056 l-157.5,-157.5" stroke="black" stroke-width="5"/>
<path d="M8771,7148 l60,0 l0,60 l-60,0 z" fill="green"/>
<path d="M8801,7178 l-1058,-1058" stroke="black" stroke-width="5"/>
<path d="M4469,6177 l60,0 l0,60 l-60,0 z" fill="green"/>
<path d="M4499,6207 l-92,-92" stroke="black" stroke-width="5"/>
<path d="M3066,3345 l60,0 l0,60 l-60,0 z" fill="green"/>
<path d="M3096,3375 l-626,-626" stroke="black" stroke-width="5"/>
<path d="M5222,3251 l60,0 l0,60 l-60,0 z" fill="green"/>
<path d="M5252,3281 l-291.5,-291.5" stroke="black" stroke-width="5"/>
<path d="M2217,1416 l60,0 l0,60 l-60,0 z" fill="green"/>
<path d="M2247,1446 l-541.5,-541.5" stroke="black" stroke-width="5"/>
<path d="M3317,8471 l60,0 l0,60 l-60,0 z" fill="green"/>
<path d="M3347,8501 l-383.5,-383.5" stroke="black" stroke-width="5"/>
<path d="M5761,8570 l60,0 l0,60 l-60,0 z" fill="green"/>
<path d="M5791,8600 l-350.5,-350.5" stroke="black" stroke-width="5"/>
<path d="M8003,8962 l60,0 l0,60 l-60,0 z" fill="green"/>
<path d="M8033,8992 l-369.5,-369.5" stroke="black" stroke-width="5"/>
<path d="M2267,9224 l60,0 l0,60 l-60,0 z" fill="green"/>
<path d="M2297,9254 l-1109,-1109" stroke="black" stroke-width="5"/>
<path d="M4282,6146 l60,0 l0,60 l-60,0 z" fill="green"/>
<path d="M4312,6176 l-474,-474" stroke="black" stroke-width="5"/>
<text font-size="200" text-anchor="middle" x="1729.5" y="250.5">
0
</text>
<text font-size="200" text-anchor="middle" x="5156" y="6507">
1
</text>
<text font-size="200" text-anchor="middle" x="5196.5" y="281.5">
2
</text>
<text font-size="200" text-anchor="middle" x="5511" y="2954">
3
</text>
<text font-size="200" text-anchor="middle" x="6214.5" y="2859.5">
4
</text>
<text font-size="200" text-anchor="middle" x="3663.5" y="1147.5">
5
</text>
<text font-size="200" text-anchor="middle" x="7604" y="9313">
6
</text>
<text font-size="200" text-anchor="middle" x="7659.5" y="286.5">
7
</text>
<text font-size="200" text-anchor="middle" x="8688.5" y="4769.5">
8
</text>
<text font-size="200" text-anchor="middle" x="6543" y="8391">
9
</text>
<text font-size="200" text-anchor="middle" x="7147.5" y="2080.5">
10
</text>
<text font-size="200" text-anchor="middle" x="211" y="4695">
11
</text>
<text font-size="200" text-anchor="middle" x="6728" y="3743">
12
</text>
<text font-size="200" text-anchor="middle" x="4782.5" y="1767.5">
13
</text>
<text font-size="200" text-anchor="middle" x="5184.5" y="570.5">
14
</text>
<text font-size="200" text-anchor="middle" x="2900.5" y="4649.5">
15
</text>
<text font-size="200" text-anchor="middle" x="4111" y="2900">
16
</text>
<text font-size="200" text-anchor="middle" x="5194.5" y="7564.5">
17
</text>
<text font-size="200" text-anchor="middle" x="2240" y="9605">
18
</text>
<text font-size="200" text-anchor="middle" x="8791" y="3772">
19
</text>
<text font-size="200" text-anchor="middle" x="8304.5" y="8747.5">
20
</text>
<text font-size="200" text-anchor="middle" x="2684" y="1409">
21
</text>
<text font-size="200" text-anchor="middle" x="7001.5" y="4319.5">
22
</text>
<text font-size="200" text-anchor="middle" x="8036" y="7758">
23
</text>
<text font-size="200" text-anchor="middle" x="8201.5" y="4031.5">
24
</text>
<text font-size="200" text-anchor="middle" x="2823" y="8906">
25
</text>
<text font-size="200" text-anchor="middle" x="7495" y="4146">
26
</text>
<text font-size="200" text-anchor="middle" x="9396.5" y="125.5">
27
</text>
<text font-size="200" text-anchor="middle" x="6337" y="765">
28
</text>
<text font-size="200" text-anchor="middle" x="1397" y="1963">
29
</text>
<text font-size="200" text-anchor="middle" x="38.5" y="8396.5">
30
</text>
<text font-size="200" text-anchor="middle" x="3266.5" y="3724.5">
31
</text>
<text font-size="200" text-anchor="middle" x="3638.5" y="8609.5">
32
</text>
<text font-size="200" text-anchor="middle" x="5589.5" y="3293.5">
33
</text>
<text font-size="200" text-anchor="middle" x="4943" y="4058">
34
</text>
<text font-size="200" text-anchor="middle" x="3253.5" y="7025.5">
35
</text>
<text font-size="200" text-anchor="middle" x="8561" y="8256">
36
</text>
<text font-size="200" text-anchor="middle" x="570" y="3240">
37
</text>
<text font-size="200" text-anchor="middle" x="25.5" y="7460.5">
38
</text>
<text font-size="200" text-anchor="middle" x="776.5" y="3968.5">
39
</text>
<text font-size="200" text-anchor="middle" x="7743" y="6190">
40
</text>
<text font-size="200" text-anchor="middle" x="4407" y="6185">
41
</text>
<text font-size="200" text-anchor="middle" x="2470" y="2819">
42
</text>
<text font-size="200" text-anchor="middle" x="4960.5" y="3059.5">
43
</text>
<text font-size="200" text-anchor="middle" x="1705.5" y="974.5">
44
</text>
<text font-size="200" text-anchor="middle" x="2963.5" y="8187.5">
45
</text>
<text font-size="200" text-anchor="middle" x="5440.5" y="8319.5">
46
</text>
<text font-size="200" text-anchor="middle" x="7663.5" y="8692.5">
47
</text>
<text font-size="200" text-anchor="middle" x="1188" y="8215">
48
</text>
<text font-size="200" text-anchor="middle" x="3838" y="5772">
49
</text>
</svg>